<svg width="100%" height="100%" viewBox="0 0 45 45" fill="none" xmlns="http://www.w3.org/2000/svg">
<path d="M22.5 11.63V6" stroke="black" stroke-width="1.5" stroke-linecap="round"/>
<path d="M20 8H25" stroke="black" stroke-width="1.5" stroke-linecap="round"/>
<path fill-rule="evenodd" clip-rule="evenodd" d="M22.5 25C22.5 25 27 17.5 25.5 14.5C25.5 14.5 24.5 12 22.5 12C20.5 12 19.5 14.5 19.5 14.5C18 17.5 22.5 25 22.5 25Z" fill="white" stroke="black" stroke-width="1.5"/>
<path fill-rule="evenodd" clip-rule="evenodd" d="M12.5 37C18 40.5 27 40.5 32.5 37V30C32.5 30 41.5 25.5 38.5 19.5C34.5 13 25 16 22.5 23.5V27V23.5C20 16 10.5 13 6.5 19.5C3.5 25.5 12.5 30 12.5 30V37Z" fill="white" stroke="black" stroke-width="1.5" stroke-linecap="round" stroke-linejoin="round"/>
<path d="M12.5 30C18 27 27 27 32.5 30" stroke="black" stroke-width="1.5" stroke-linecap="round" stroke-linejoin="round"/>
<path d="M12.5 33.5C18 30.5 27 30.5 32.5 33.5" stroke="black" stroke-width="1.5" stroke-linecap="round" stroke-linejoin="round"/>
<path d="M12.5 37C18 34 27 34 32.5 37" stroke="black" stroke-width="1.5" stroke-linecap="round" stroke-linejoin="round"/>
</svg>
