<svg width="100%" height="100%" viewBox="0 0 45 45" fill="none" xmlns="http://www.w3.org/2000/svg">
<path fill-rule="evenodd" clip-rule="evenodd" d="M22 10C32.5 11 38.5 18 38 39H15C15 30 25 32.5 23 18" fill="white"/>
<path d="M22 10C32.5 11 38.5 18 38 39H15C15 30 25 32.5 23 18" stroke="black" stroke-width="1.5" stroke-linecap="round" stroke-linejoin="round"/>
<path fill-rule="evenodd" clip-rule="evenodd" d="M24 18C24.38 20.91 18.45 25.37 16 27C13 29 13.18 31.34 11 31C9.958 30.06 12.41 27.96 11 28C10 28 11.19 29.23 10 30C9 30 5.997 31 6 26C6 24 12 14 12 14C12 14 13.89 12.1 14 10.5C13.27 9.506 13.5 8.5 13.5 7.5C14.5 6.5 16.5 10 16.5 10H18.5C18.5 10 19.28 8.008 21 7C22 7 22 10 22 10" fill="white"/>
<path d="M24 18C24.38 20.91 18.45 25.37 16 27C13 29 13.18 31.34 11 31C9.958 30.06 12.41 27.96 11 28C10 28 11.19 29.23 10 30C9 30 5.997 31 6 26C6 24 12 14 12 14C12 14 13.89 12.1 14 10.5C13.27 9.506 13.5 8.5 13.5 7.5C14.5 6.5 16.5 10 16.5 10H18.5C18.5 10 19.28 8.008 21 7C22 7 22 10 22 10" stroke="black" stroke-width="1.5" stroke-linecap="round" stroke-linejoin="round"/>
<path fill-rule="evenodd" clip-rule="evenodd" d="M9.5 25.5C9.5 25.6326 9.44732 25.7598 9.35355 25.8536C9.25979 25.9473 9.13261 26 9 26C8.86739 26 8.74021 25.9473 8.64645 25.8536C8.55268 25.7598 8.5 25.6326 8.5 25.5C8.5 25.3674 8.55268 25.2402 8.64645 25.1464C8.74021 25.0527 8.86739 25 9 25C9.13261 25 9.25979 25.0527 9.35355 25.1464C9.44732 25.2402 9.5 25.3674 9.5 25.5Z" fill="black" stroke="black" stroke-width="1.5" stroke-linecap="round" stroke-linejoin="round"/>
<path fill-rule="evenodd" clip-rule="evenodd" d="M14.933 15.75C14.7341 16.0945 14.4977 16.3986 14.2758 16.5953C14.054 16.792 13.8648 16.8653 13.75 16.799C13.6352 16.7327 13.604 16.5322 13.6635 16.2417C13.7229 15.9512 13.8681 15.5945 14.067 15.25C14.2659 14.9055 14.5023 14.6014 14.7242 14.4047C14.946 14.208 15.1352 14.1347 15.25 14.201C15.3648 14.2673 15.396 14.4677 15.3365 14.7582C15.2771 15.0487 15.1319 15.4055 14.933 15.75Z" fill="black" stroke="black" stroke-width="1.5" stroke-linecap="round" stroke-linejoin="round"/>
</svg>
