<svg width="100%" height="100%" viewBox="0 0 45 45" fill="none" xmlns="http://www.w3.org/2000/svg">
<path d="M9 26C17.5 24.5 30 24.5 36 26L38.5 13.5L31 25L30.7 10.9L25.5 24.5L22.5 10L19.5 24.5L14.3 10.9L14 25L6.5 13.5L9 26Z" fill="black" stroke="black" stroke-width="1.5" stroke-linejoin="round"/>
<path d="M9 26C9 28 10.5 28 11.5 30C12.5 31.5 12.5 31 12 33.5C10.5 34.5 11 36 11 36C9.5 37.5 11 38.5 11 38.5C17.5 39.5 27.5 39.5 34 38.5C34 38.5 35.5 37.5 34 36C34 36 34.5 34.5 33 33.5C32.5 31 32.5 31.5 33.5 30C34.5 28 36 28 36 26C27.5 24.5 17.5 24.5 9 26Z" fill="black" stroke="black" stroke-width="1.5" stroke-linecap="round" stroke-linejoin="round"/>
<path d="M11.5 30C15 29 30 29 33.5 30H11.5Z" fill="black"/>
<path d="M11.5 30C15 29 30 29 33.5 30" stroke="black" stroke-width="1.5" stroke-linecap="round" stroke-linejoin="round"/>
<path d="M12 33.5C18 32.5 27 32.5 33 33.5H12Z" fill="black"/>
<path d="M12 33.5C18 32.5 27 32.5 33 33.5" stroke="black" stroke-width="1.5" stroke-linecap="round" stroke-linejoin="round"/>
<path d="M6 14C7.10457 14 8 13.1046 8 12C8 10.8954 7.10457 10 6 10C4.89543 10 4 10.8954 4 12C4 13.1046 4.89543 14 6 14Z" fill="black" stroke="black" stroke-width="1.5" stroke-linecap="round" stroke-linejoin="round"/>
<path d="M14 11C15.1046 11 16 10.1046 16 9C16 7.89543 15.1046 7 14 7C12.8954 7 12 7.89543 12 9C12 10.1046 12.8954 11 14 11Z" fill="black" stroke="black" stroke-width="1.5" stroke-linecap="round" stroke-linejoin="round"/>
<path d="M22.5 10C23.6046 10 24.5 9.10457 24.5 8C24.5 6.89543 23.6046 6 22.5 6C21.3954 6 20.5 6.89543 20.5 8C20.5 9.10457 21.3954 10 22.5 10Z" fill="black" stroke="black" stroke-width="1.5" stroke-linecap="round" stroke-linejoin="round"/>
<path d="M31 11C32.1046 11 33 10.1046 33 9C33 7.89543 32.1046 7 31 7C29.8954 7 29 7.89543 29 9C29 10.1046 29.8954 11 31 11Z" fill="black" stroke="black" stroke-width="1.5" stroke-linecap="round" stroke-linejoin="round"/>
<path d="M39 14C40.1046 14 41 13.1046 41 12C41 10.8954 40.1046 10 39 10C37.8954 10 37 10.8954 37 12C37 13.1046 37.8954 14 39 14Z" fill="black" stroke="black" stroke-width="1.5" stroke-linecap="round" stroke-linejoin="round"/>
<path d="M11 38.5C18.4478 41.091 26.5522 41.091 34 38.5" stroke="black" stroke-width="1.5" stroke-linejoin="round"/>
<path d="M11 29C18.4478 26.409 26.5522 26.409 34 29" stroke="white" stroke-width="1.5" stroke-linecap="round" stroke-linejoin="round"/>
<path d="M12.5 31.5H32.5" stroke="white" stroke-width="1.5" stroke-linecap="round" stroke-linejoin="round"/>
<path d="M11.5 34.5C18.6427 36.8647 26.3573 36.8647 33.5 34.5" stroke="white" stroke-width="1.5" stroke-linecap="round" stroke-linejoin="round"/>
<path d="M10.5 37.5C18.25 40.3286 26.75 40.3286 34.5 37.5" stroke="white" stroke-width="1.5" stroke-linecap="round" stroke-linejoin="round"/>
</svg>
