<svg width="100%" height="100%" viewBox="0 0 45 45" fill="none" xmlns="http://www.w3.org/2000/svg">
<path fill-rule="evenodd" clip-rule="evenodd" d="M9 39H36V36H9V39Z" fill="black" stroke="black" stroke-width="1.5" stroke-linejoin="round"/>
<path fill-rule="evenodd" clip-rule="evenodd" d="M12.5 32L14 29.5H31L32.5 32H12.5Z" fill="black" stroke="black" stroke-width="1.5" stroke-linejoin="round"/>
<path fill-rule="evenodd" clip-rule="evenodd" d="M12 36V32H33V36H12Z" fill="black" stroke="black" stroke-width="1.5" stroke-linejoin="round"/>
<path fill-rule="evenodd" clip-rule="evenodd" d="M14 29.5V16.5H31V29.5H14Z" fill="black" stroke="black" stroke-width="1.5"/>
<path fill-rule="evenodd" clip-rule="evenodd" d="M14 16.5L11 14H34L31 16.5H14Z" fill="black" stroke="black" stroke-width="1.5" stroke-linejoin="round"/>
<path fill-rule="evenodd" clip-rule="evenodd" d="M11 14V9H15V11H20V9H25V11H30V9H34V14H11Z" fill="black" stroke="black" stroke-width="1.5" stroke-linejoin="round"/>
<path d="M12 35.5H33" stroke="white" stroke-linecap="round"/>
<path d="M13 31.5H32" stroke="white" stroke-linecap="round"/>
<path d="M14 29.5H31" stroke="white" stroke-linecap="round"/>
<path d="M14 16.5H31" stroke="white" stroke-linecap="round"/>
<path d="M11 14H34" stroke="white" stroke-linecap="round"/>
</svg>
