<svg width="100%" height="100%" viewBox="0 0 45 45" fill="none" xmlns="http://www.w3.org/2000/svg">
<path fill-rule="evenodd" clip-rule="evenodd" d="M9 39H36V36H9V39Z" fill="white" stroke="black" stroke-width="1.5" stroke-linejoin="round"/>
<path fill-rule="evenodd" clip-rule="evenodd" d="M12 36V32H33V36H12Z" fill="white" stroke="black" stroke-width="1.5" stroke-linejoin="round"/>
<path fill-rule="evenodd" clip-rule="evenodd" d="M11 14V9H15V11H20V9H25V11H30V9H34V14" fill="white"/>
<path d="M11 14V9H15V11H20V9H25V11H30V9H34V14" stroke="black" stroke-width="1.5" stroke-linejoin="round"/>
<path fill-rule="evenodd" clip-rule="evenodd" d="M34 14L31 17H14L11 14" fill="white"/>
<path d="M34 14L31 17H14L11 14" stroke="black" stroke-width="1.5" stroke-linecap="round" stroke-linejoin="round"/>
<path fill-rule="evenodd" clip-rule="evenodd" d="M31 17V29.5H14V17" fill="white"/>
<path d="M31 17V29.5H14V17" stroke="black" stroke-width="1.5"/>
<path fill-rule="evenodd" clip-rule="evenodd" d="M31 29.5L32.5 32H12.5L14 29.5" fill="white"/>
<path d="M31 29.5L32.5 32H12.5L14 29.5" stroke="black" stroke-width="1.5" stroke-linecap="round" stroke-linejoin="round"/>
<path d="M11 14H34" stroke="black" stroke-width="1.5" stroke-linecap="round"/>
</svg>
